<?xml version="1.0" encoding="utf-8"?>
<svg width="800px" height="800px" viewBox="0 0 22 22" version="1.1" fill="#ffffff">
<g transform="translate(-544.571 -742.934)">
<path d="m555.56 745.933-4.989 4.99v6.02l4.989 4.99h1.011V745.935h-1.011zm2.877.537-.245.977a7 7 0 0 1 4.38 6.486 7 7 0 0 1-4.381 6.479l.244.974a8 8 0 0 0 5.136-7.453 8 8 0 0 0-5.134-7.463zm.459 3.744-.54.862a4 4 0 0 1 1.215 2.857 4 4 0 0 1-1.21 2.861l.539.864a5 5 0 0 0 1.671-3.725 5 5 0 0 0-1.675-3.719zm-11.325.72v6h2v-6h-2z"/>
</g>
</svg>