<svg version="1.0" xmlns="http://www.w3.org/2000/svg"
 width="233.000000pt" height="216.000000pt" viewBox="0 0 233.000000 216.000000"
 preserveAspectRatio="xMidYMid meet">
<g transform="translate(0.000000,216.000000) scale(0.100000,-0.100000)"
fill="#fe8605" stroke="none">
<path d="M688 1727 l-468 -271 0 -219 c0 -194 2 -218 16 -213 8 3 218 123 465
266 248 143 452 260 455 260 2 0 211 -119 465 -265 253 -146 463 -265 466
-265 2 0 3 99 2 220 l-2 220 -446 257 c-245 141 -455 262 -466 269 -18 11 -72
-18 -487 -259z m534 197 c34 -20 79 -46 98 -57 19 -11 55 -31 80 -45 25 -13
50 -28 55 -32 6 -4 87 -51 180 -105 94 -54 186 -107 205 -118 19 -11 44 -25
55 -31 141 -79 153 -89 159 -125 10 -60 7 -319 -4 -326 -9 -6 -55 19 -525 290
-132 76 -269 154 -304 173 l-65 35 -65 -35 c-74 -39 -299 -169 -406 -233 -38
-23 -90 -53 -115 -67 -25 -14 -74 -42 -110 -63 -98 -57 -118 -68 -163 -91
l-42 -21 -3 166 c-1 91 0 175 2 186 3 13 31 35 68 56 60 34 125 71 483 279 88
51 175 101 193 111 17 11 49 29 70 41 40 23 86 48 89 48 0 0 30 -16 65 -36z"/>
<path d="M690 1102 l-465 -268 -3 -136 -3 -135 70 -42 c38 -22 75 -41 82 -41
7 0 180 97 386 215 205 119 380 218 388 221 16 7 71 -23 502 -273 155 -90 287
-163 294 -163 7 0 43 18 81 40 l68 41 0 137 -1 137 -401 230 c-220 127 -430
247 -467 267 l-66 37 -465 -267z m578 168 c57 -33 105 -60 107 -60 2 0 32 -17
66 -38 35 -21 89 -52 119 -69 30 -17 127 -72 215 -124 88 -51 180 -104 205
-117 80 -45 80 -44 80 -150 0 -117 -13 -148 -76 -180 l-45 -23 -227 132 c-125
72 -257 149 -294 170 -38 21 -98 57 -136 79 -114 67 -120 68 -204 23 -40 -22
-165 -92 -278 -157 -370 -214 -394 -228 -416 -236 -29 -11 -110 39 -125 77
-10 26 -11 185 -2 210 3 6 35 29 71 51 74 44 247 144 302 174 34 20 264 153
298 173 9 6 40 23 67 38 28 15 73 40 100 56 28 17 55 30 60 31 6 0 57 -27 113
-60z"/>
<path d="M842 552 c-233 -136 -299 -179 -290 -187 7 -7 93 -57 190 -113 l177
-102 88 51 c48 28 102 59 118 69 l30 19 120 -69 120 -69 55 32 c30 18 115 66
187 107 73 41 133 78 133 81 0 7 -608 359 -619 358 -3 0 -142 -80 -309 -177z
m445 69 c125 -74 293 -171 298 -171 2 0 32 -17 65 -38 69 -44 69 -42 -25 -93
-33 -17 -78 -44 -100 -58 -22 -14 -61 -37 -86 -50 l-47 -25 -68 41 c-97 57
-150 83 -171 83 -10 0 -65 -27 -121 -60 -57 -33 -108 -60 -113 -60 -4 0 -28
11 -51 25 -24 14 -88 50 -143 82 -55 31 -103 61 -107 67 -11 16 3 26 152 111
74 43 151 87 170 98 163 96 207 117 227 112 13 -3 67 -32 120 -64z"/>
</g>
</svg>
